<?xml version="1.0" encoding="UTF-8" standalone="no"?>
<!-- Created with Inkscape (http://www.inkscape.org/) -->

<svg
   xmlns:dc="http://purl.org/dc/elements/1.1/"
   xmlns:cc="http://creativecommons.org/ns#"
   xmlns:rdf="http://www.w3.org/1999/02/22-rdf-syntax-ns#"
   xmlns:svg="http://www.w3.org/2000/svg"
   xmlns="http://www.w3.org/2000/svg"
   xmlns:sodipodi="http://sodipodi.sourceforge.net/DTD/sodipodi-0.dtd"
   xmlns:inkscape="http://www.inkscape.org/namespaces/inkscape"
   width="646.87262pt"
   height="64.153099pt"
   viewBox="0 0 808.59079 80.191373"
   id="svg3492"
   version="1.1"
   inkscape:version="0.91 r13725"
   sodipodi:docname="University_of_BRISTOL.svg">
  <defs
     id="defs3494">
    <clipPath
       clipPathUnits="userSpaceOnUse"
       id="clipPath18">
      <path
         d="m 10,0 5428.32,0 0,1570.42 L 10,1570.42 10,0 Z"
         id="path20"
         inkscape:connector-curvature="0" />
    </clipPath>
  </defs>
  <sodipodi:namedview
     id="base"
     pagecolor="#ffffff"
     bordercolor="#666666"
     borderopacity="1.0"
     inkscape:pageopacity="0.0"
     inkscape:pageshadow="2"
     inkscape:zoom="1.4"
     inkscape:cx="320.0591"
     inkscape:cy="-57.245202"
     inkscape:document-units="px"
     inkscape:current-layer="layer1"
     showgrid="false"
     showguides="false"
     inkscape:guide-bbox="true"
     units="pt"
     inkscape:window-width="1920"
     inkscape:window-height="1152"
     inkscape:window-x="-3"
     inkscape:window-y="-3"
     inkscape:window-maximized="1"
     fit-margin-top="1"
     fit-margin-left="1"
     fit-margin-right="1"
     fit-margin-bottom="1" />
  <metadata
     id="metadata3497">
    <rdf:RDF>
      <cc:Work
         rdf:about="">
        <dc:format>image/svg+xml</dc:format>
        <dc:type
           rdf:resource="http://purl.org/dc/dcmitype/StillImage" />
        <dc:title></dc:title>
      </cc:Work>
    </rdf:RDF>
  </metadata>
  <g
     inkscape:label="Layer 1"
     inkscape:groupmode="layer"
     id="layer1"
     transform="translate(-100.39607,-205.03295)">
    <g
       id="g3439"
       transform="matrix(0.09252283,0,0,-0.09252283,404.56812,266.35043)"
       style="fill:#c4000c;fill-opacity:0.94117647">
      <path
         d="m 1951.54,344.66 100.02,0 c 108.37,0 163.02,-73.199 163.02,-144.512 0,-72.226 -35.2,-148.1597 -157.46,-148.1597 -77.81,0 -105.58,25.0234 -105.58,95.3907 l 0,197.281 z m -76.85,-224.121 c 0,-58.3984 -14.83,-75.9687 -90.75,-75.9687 l -21.34,0 0,-17.582 338.97,0 c 149.14,0 200.06,102.7927 200.06,175.9527 0,72.231 -50.92,128.75 -137.96,154.668 l 0,1.879 c 62.05,11.114 105.56,60.172 105.56,112.953 0,44.481 -18.52,76 -56.5,102.797 -33.35,24.114 -104.66,36.16 -186.15,36.16 -17.62,0 -87.99,-0.918 -138.96,-2.808 -26.83,-0.918 -90.75,-4.629 -116.68,-5.52 l 0,-17.609 32.42,0 c 64.82,0 71.33,-27.789 71.33,-80.57 l 0,-384.36 0,0.008 z m 76.85,470.481 c 23.15,0.929 61.16,2.789 81.51,2.789 113.92,0 152.81,-59.289 152.81,-124.118 0,-72.242 -44.45,-107.421 -133.36,-107.421 l -100.96,0 0,228.761"
         style="fill:#c4000c;fill-opacity:0.94117647;fill-rule:nonzero;stroke:none"
         id="path22"
         inkscape:connector-curvature="0" />
      <path
         d="m 2555.44,286.301 c -21.34,0 -35.23,-0.91 -57.45,1.84 l 0,303.808 c 16.66,1.86 28.71,1.86 46.31,1.86 142.73,0 181.56,-66.707 181.56,-152.821 0,-111.148 -67.54,-154.687 -170.42,-154.687 z m 684.36,299.16 0,17.609 -225.07,0 0,-17.609 c 51.85,-2.77 69.49,-16.66 69.49,-66.68 l 0,-394.57 c 0,-60.1719 -11.47,-75.8594 -64.47,-79.3126 -70.65,3.711 -100.65,31.4219 -151.33,82.0706 l -73.11,73.179 c -43.47,43.543 -71.26,69.493 -105.54,96.332 75.95,22.231 123.14,80.59 123.14,150.04 0,94.48 -76.85,164.878 -248.22,164.878 -60.24,0 -78.76,-0.918 -116.73,-2.808 -37.96,-1.82 -94.47,-5.52 -116.69,-5.52 l 0,-17.609 20.38,0 c 53.72,0 69.47,-16.66 69.47,-74.109 l 0,-389.911 c 0,-62.0699 -19.47,-76.8707 -74.09,-76.8707 l -15.76,0 0,-17.582 262.16,0 0,17.582 -21.34,0 c -51.88,0 -74.1,13.8985 -74.1,69.4687 l 0,156.539 c 14.83,-0.937 26.86,-1.887 47.24,-1.887 25.04,0 39.86,0.95 63.03,1.887 22.24,-14.84 54.69,-41.68 95.43,-82.437 l 61.1,-61.172 c 80.07,-80.1409 114.23,-105.4495 265.05,-99.9807 l 209.96,0 0,17.582 c -63.9,0 -78.71,18.5313 -78.71,73.1597 l 0,392.7 c 0,62.05 20.37,75.039 78.71,75.039"
         style="fill:#c4000c;fill-opacity:0.94117647;fill-rule:nonzero;stroke:none"
         id="path24"
         inkscape:connector-curvature="0" />
      <path
         d="m 3302.77,167.75 c 19.48,-82.4414 84.28,-130.5898 156.53,-130.5898 62.07,0 127.79,36.121 127.79,109.2808 0,133.399 -297.29,174.118 -297.29,336.188 0,76.91 70.4,134.332 164.89,134.332 77.75,0 93.53,-23.152 125.95,-23.152 7.39,0 11.08,1.851 16.66,9.269 l 14.81,0 15.74,-117.629 -15.74,0 c -25.94,66.68 -85.2,109.262 -149.12,109.262 -61.13,0 -103.75,-35.16 -103.75,-87.031 0,-131.52 297.32,-166.758 297.32,-337.129 0,-90.7619 -80.6,-158.4026 -188.94,-158.4026 -50.94,0 -115.74,25.0235 -128.71,25.0235 -8.34,0 -14.85,-4.6133 -18.54,-10.1719 l -15.74,0 -19.42,140.762 17.56,0"
         style="fill:#c4000c;fill-opacity:0.94117647;fill-rule:nonzero;stroke:none"
         id="path26"
         inkscape:connector-curvature="0" />
      <path
         d="m 4013.16,112.16 c 0,-50.0194 16.63,-67.5897 73.13,-67.5897 l 34.32,0 0,-17.582 -291.78,0 0,17.582 34.3,0 c 56.48,0 73.12,17.5703 73.12,67.5897 l 0,457.531 -161.15,0 c -37.01,0 -53.69,-21.25 -67.64,-102.761 l -16.64,0 14.82,150.031 17.58,0 c 0.98,-5.563 4.67,-9.289 10.22,-11.121 5.54,-1.879 12.05,-2.77 18.51,-2.77 l 445.49,0 c 12.99,0 26.88,2.77 28.75,13.891 l 17.56,0 14.84,-150.031 -16.7,0 c -13.86,81.511 -30.54,102.761 -67.57,102.761 l -161.16,0 0,-457.531"
         style="fill:#c4000c;fill-opacity:0.94117647;fill-rule:nonzero;stroke:none"
         id="path28"
         inkscape:connector-curvature="0" />
      <path
         d="m 4936.72,330.762 c 0,166.699 -150.04,286.199 -325.08,286.199 -197.26,0 -339.02,-130.59 -339.02,-314.891 0,-173.23 152.87,-289.9294 334.39,-289.9294 179.67,0 329.71,131.5314 329.71,318.6214 z m -87.09,-30.551 c 0,-131.5 -72.21,-264.8594 -223.17,-264.8594 -149.14,0 -266.73,122.1994 -266.73,295.4104 0,111.148 64.78,263.039 227.81,263.039 152.83,0 262.09,-121.36 262.09,-293.59"
         style="fill:#c4000c;fill-opacity:0.94117647;fill-rule:nonzero;stroke:none"
         id="path30"
         inkscape:connector-curvature="0" />
      <path
         d="m 5367.03,26.9883 -414,0 0,17.582 30.54,0 c 42.62,0 58.34,13.8985 58.34,61.1487 l 0,410.301 c 0,49.058 -14.8,69.449 -73.14,69.449 l -12.95,0 0,17.609 273.2,0 0,-17.609 -34.29,0 c -60.16,0 -75.96,-6.489 -75.96,-63.91 l 0,-426.9496 c 0,-25.0078 10.23,-34.2891 37.07,-34.2891 l 136.13,0 c 54.65,0 71.29,21.3086 129.69,101.8707 l 16.66,0 L 5367.03,27"
         style="fill:#c4000c;fill-opacity:0.94117647;fill-rule:nonzero;stroke:none"
         id="path32"
         inkscape:connector-curvature="0" />
    </g>
    <g
       id="g3447"
       transform="matrix(0.125,0,0,-0.125,-118.57893,368.53045)">
      <path
         d="m 2285.12,1263.63 0,-13.05 c -46.01,-0.68 -62.49,-19.23 -62.49,-63.19 l 0,-185.44 c 0,-85.161 -54.27,-176.489 -203.3,-176.489 -131.17,0 -198.48,74.859 -198.48,173.059 l 0,200.54 c 0,43.96 -12.36,50.83 -59.05,51.51 l 0,13.05 176.5,0 0,-13.05 -6.19,0 c -37.76,0 -54.25,-10.31 -54.25,-50.14 l 0,-190.92 c 0,-92.721 54.25,-148.35 156.58,-148.35 77.61,0 156.6,32.289 156.6,149.04 l 0,160.02 c 0,65.93 -10.31,77.6 -67.31,80.35 l 0,13.05 161.39,0"
         style="fill:#000000;fill-opacity:1;fill-rule:nonzero;stroke:none"
         id="path36"
         inkscape:connector-curvature="0" />
      <path
         d="m 2375.38,896.199 c 0,-37.769 8.92,-46.699 46,-46.699 l 0,-13.051 -138.04,0 0,13.051 c 30.22,0 46.02,16.48 46.02,43.27 l 0,144.22 c 0,25.41 -2.75,30.22 -20.61,33.65 l -23.35,4.8 0,10.99 78.98,28.84 11,0 0,-53.56 c 46,28.84 84.46,54.26 118.12,54.26 46.71,0 73.48,-34.34 73.48,-103.02 0,-91.348 -4.81,-109.2 -5.49,-135.981 -0.68,-18.539 10.31,-27.469 38.46,-27.469 l 15.11,0 0,-13.051 -147.66,0 0,13.051 c 19.91,0.691 31.59,5.5 39.14,13.051 13.05,13.051 14.43,63.187 14.43,154.529 0,54.94 -26.79,72.11 -54.26,72.11 -21.98,0 -55.62,-19.23 -91.33,-43.96 l 0,-149.031"
         style="fill:#000000;fill-opacity:1;fill-rule:nonzero;stroke:none"
         id="path38"
         inkscape:connector-curvature="0" />
      <path
         d="m 2718.25,1273.94 c 16.48,0 30.21,-11.68 30.21,-26.11 0,-14.42 -13.73,-26.1 -30.21,-26.1 -16.48,0 -29.53,11.68 -29.53,26.1 0,14.43 13.05,26.11 29.53,26.11 z m 28.16,-385.292 c 0,-24.046 13.06,-39.16 49.43,-39.16 l 0,-13.047 -152.45,0 0,13.047 c 41.9,0 57.01,13.731 57.01,50.141 l 0,138.041 c 0,26.79 -3.44,30.22 -21.29,33.66 l -32.28,6.18 0,10.98 89.28,30.9 10.3,0 0,-230.749"
         style="fill:#000000;fill-opacity:1;fill-rule:nonzero;stroke:none"
         id="path40"
         inkscape:connector-curvature="0" />
      <path
         d="m 2952.7,830.27 -99.59,228.01 c -10.32,24.04 -19.24,32.28 -30.22,34.34 l -21.33,3.43 0,12.36 140.14,0 0,-12.36 c -41.91,-1.37 -54.94,-6.86 -38.48,-39.15 l 72.82,-171.002 70.05,158.642 c 12.37,28.16 6.18,48.07 -43.96,51.51 l 0,12.36 119.49,0 0,-12.36 c -26.07,-4.8 -41.21,-19.91 -54.24,-50.13 l -94.76,-215.65 -19.92,0"
         style="fill:#000000;fill-opacity:1;fill-rule:nonzero;stroke:none"
         id="path42"
         inkscape:connector-curvature="0" />
      <path
         d="m 3377.83,1010.89 0,15.8 c -22.65,22.66 -20.6,89.29 -113.32,89.29 -83.79,0 -132.54,-74.18 -132.54,-146.968 0,-79.672 52.17,-140.793 119.49,-140.793 50.14,0 93.4,34.34 122.25,70.73 l -7.56,8.242 c -26.09,-30.902 -52.87,-44.64 -87.2,-44.64 -54.28,0 -104.42,48.07 -104.42,119.488 0,8.941 1.39,18.541 2.76,28.851 l 200.54,0 z m -198.49,17.86 c 15.82,63.86 50.15,74.17 72.83,74.17 32.95,0 60.41,-29.53 67.97,-74.17 l -140.8,0"
         style="fill:#000000;fill-opacity:1;fill-rule:nonzero;stroke:none"
         id="path44"
         inkscape:connector-curvature="0" />
      <path
         d="m 3510.27,886.578 c 0,-28.148 10.3,-37.09 44.63,-37.09 l 26.12,0 0,-13.047 -162.8,0 0,13.047 c 35.04,0.692 46.04,15.114 46.04,51.524 l 0,158.638 -46.04,16.49 0,11.68 78.3,27.47 13.75,0 0,-72.8 1.37,0 c 34.34,56.32 42.58,69.37 65.24,69.37 8.26,0 10.31,-0.69 23.35,-6.19 6.86,-2.74 19.24,-5.48 35.73,-10.29 l -16.49,-41.2 c -10.31,1.37 -23.36,4.8 -36.4,10.99 -7.54,3.43 -15.78,6.87 -24.03,6.87 -12.38,0 -19.94,-8.25 -26.79,-17.86 -8.93,-12.36 -16.49,-24.04 -21.98,-34.34 l 0,-133.238"
         style="fill:#000000;fill-opacity:1;fill-rule:nonzero;stroke:none"
         id="path46"
         inkscape:connector-curvature="0" />
      <path
         d="m 3683.38,905.82 c 8.22,-41.211 34.32,-64.55 65.25,-64.55 27.44,0 48.75,20.601 48.75,45.32 0,14.43 -3.43,23.359 -21.99,41.89 -48.77,48.758 -103.01,53.571 -103.01,110.58 0,45.32 35.73,76.92 87.91,76.92 18.54,0 37.8,-4.12 54.94,-11 l 1.37,-62.5 -11.66,0 c -4.82,35.03 -27.5,57 -54.96,57 -22.68,0 -41.87,-15.79 -41.87,-38.46 0,-60.44 127.71,-70.731 127.71,-154.52 0,-44.641 -37.07,-78.289 -85.14,-78.289 -13.04,0 -22.67,2.051 -30.23,4.809 -7.56,2.039 -13.03,4.121 -18.54,4.121 -4.12,0 -8.22,-2.75 -11.68,-8.25 l -10.29,0 -7.56,76.929 11,0"
         style="fill:#000000;fill-opacity:1;fill-rule:nonzero;stroke:none"
         id="path48"
         inkscape:connector-curvature="0" />
      <path
         d="m 3952.75,1273.94 c 16.51,0 30.24,-11.68 30.24,-26.11 0,-14.42 -13.73,-26.1 -30.24,-26.1 -16.44,0 -29.51,11.68 -29.51,26.1 0,14.43 13.07,26.11 29.51,26.11 z m 28.19,-385.292 c 0,-24.046 13.04,-39.16 49.43,-39.16 l 0,-13.047 -152.46,0 0,13.047 c 41.91,0 56.99,13.731 56.99,50.141 l 0,138.041 c 0,26.79 -3.42,30.22 -21.29,33.66 l -32.26,6.18 0,10.98 89.28,30.9 10.31,0 0,-230.749"
         style="fill:#000000;fill-opacity:1;fill-rule:nonzero;stroke:none"
         id="path50"
         inkscape:connector-curvature="0" />
      <path
         d="m 4226.09,1108.41 -10.99,-30.21 -87.19,0 0,-160.02 c 0,-43.258 30.9,-57.692 45.31,-57.692 15.1,0 28.85,11.684 41.88,34.352 l 10.99,-10.301 c -16.48,-35.711 -43.26,-56.32 -74.86,-56.32 -40.53,0 -69.35,33.652 -69.35,79.66 l 0,170.331 -31.59,0 0,10.99 c 26.78,13.05 50.14,44.64 65.92,87.22 l 11.7,0 0,-68 98.18,0"
         style="fill:#000000;fill-opacity:1;fill-rule:nonzero;stroke:none"
         id="path52"
         inkscape:connector-curvature="0" />
      <path
         d="m 4497.77,1032.18 c 20.59,52.2 7.54,62.5 -32.98,63.87 l 0,12.36 114,0 0,-12.36 c -28.15,-3.43 -43.93,-22.66 -56.97,-54.93 L 4405.06,749.922 c -20.63,-50.832 -36.41,-73.473 -60.43,-73.473 -16.5,0 -28.17,10.289 -28.17,24.031 0,28.161 39.81,21.301 57,38.45 7.54,7.57 17.85,25.422 23.34,39.148 l 20.6,51.524 -106.44,225.948 c -13.03,28.16 -25.41,39.83 -54.26,40.52 l 0,12.36 138.05,0 0,-12.36 c -41.9,-0.68 -46.68,-13.05 -32.95,-41.89 l 77.59,-167.578 58.38,145.598"
         style="fill:#000000;fill-opacity:1;fill-rule:nonzero;stroke:none"
         id="path54"
         inkscape:connector-curvature="0" />
      <path
         d="m 4732.93,970.371 c 0,-80.351 65.23,-142.16 150.39,-142.16 81.74,0 145.61,62.488 145.61,143.527 0,81.742 -63.87,144.232 -147.66,144.232 -71.43,0 -148.34,-50.82 -148.34,-145.611 l 0,0.012 z m 51.5,23.359 c 0,59.06 41.9,105.76 87.21,105.76 57.7,0 105.78,-66.62 105.78,-144.92 0,-68.66 -46.01,-109.879 -86.54,-109.879 -59.06,0 -106.45,65.938 -106.45,149.039"
         style="fill:#000000;fill-opacity:1;fill-rule:nonzero;stroke:none"
         id="path56"
         inkscape:connector-curvature="0" />
      <path
         d="m 5228.09,1078.2 -74.18,0 0,-188.18 c 0,-31.59 12.36,-40.52 50.82,-40.52 l 26.11,0 0,-13.051 -169.63,0 0,13.051 c 39.83,0 46.7,8.941 46.7,47.391 l 0,181.309 -50.84,0 0,11.68 c 19.22,4.11 35.72,10.3 50.84,18.54 0,57.01 12.36,100.27 52.89,140.8 33.63,33.65 65.9,48.76 97.5,48.76 38.46,0 70.74,-21.98 70.74,-32.28 0,-5.49 -13.04,-32.96 -18.53,-32.96 -9.63,0 -35.04,33.64 -80.37,33.64 -49.44,0 -76.23,-39.14 -76.23,-105.76 l 0,-52.2 69.37,0 4.81,-30.21"
         style="fill:#000000;fill-opacity:1;fill-rule:nonzero;stroke:none"
         id="path58"
         inkscape:connector-curvature="0" />
    </g>
  </g>
</svg>
